<svg xmlns="http://www.w3.org/2000/svg"><symbol viewBox="0 0 508.3 193.7" id="logo"><title>logo</title> <polygon points="0,151.2 0,0 55.1,0 55.1,22.7 25.5,22.7 25.5,151.2 "/> <polygon points="47.3,75.6 73.4,36.3 100.7,36.3 63.7,92.2 103.2,151.2 74.7,151.2 47.3,109.1 37.6,92.2 "/> <path d="M233.5,94.8c0,34.3-21.6,57.9-54.4,57.9c-18.4,0-32.2-7.3-40.6-20.7v61.8h-24.8V36.9h24.8v19.9 c8.4-13.4,22.2-20.7,40.2-20.7C211.2,36.1,233.5,59.8,233.5,94.8 M208.4,94c0-21.4-14.5-37.1-35-37.1c-20.5,0-35,15.5-35,37.1 c0,22.2,14.5,37.6,35,37.6C194,131.5,208.4,116,208.4,94"/> <path d="M356.4,102.4h-86.8c3.9,17.7,17.5,28.7,35.6,28.7c12.5,0,24-4.8,32.4-13.4l13.2,14c-11.2,12.3-27.6,19.4-47.5,19.4 c-35.4,0-58.8-23.5-58.8-58.1c0-34.8,24-58.3,58.1-58.5C343,34.6,359.4,60.9,356.4,102.4 M334.8,84.2c-0.9-18.6-13.2-29.8-32-29.8 c-18.1,0-30.9,11.4-33.7,29.8H334.8z"/> <rect x="371.5" y="36.3" width="24.6" height="114.9"/> <polygon points="440.7,130.7 508.3,130.9 508.3,151.2 410,151 410,134.1 475.7,56.4 412,56.4 412,36.1 506.4,36.3 506.4,52.9 "/> </symbol></svg>