<?xml version="1.0" encoding="utf-8"?>
<!-- Generator: Adobe Illustrator 22.1.0, SVG Export Plug-In . SVG Version: 6.00 Build 0)  -->
<svg version="1.1" id="Layer_1" xmlns="http://www.w3.org/2000/svg" xmlns:xlink="http://www.w3.org/1999/xlink" x="0px" y="0px"
	 viewBox="0 0 512 512" style="enable-background:new 0 0 512 512;" xml:space="preserve">
<style type="text/css">
	.st0{fill:#FFFFFF;}
</style>
<path class="st0" d="M484.3,110.7H331.1c-27.7,0-41.6,33.5-22,53.1l42,42L256,301.1l-95.2-95.2c-16.2-16.2-42.5-16.2-58.7,0
	L13.1,295c-8.1,8.1-8.1,21.2,0,29.3l29.3,29.3c8.1,8.1,21.2,8.1,29.3,0l59.7-59.7l95.2,95.2c16.2,16.2,42.5,16.2,58.7,0l124.5-124.5
	l42,42c19.6,19.6,53.1,5.7,53.1-22V131.5C505,120,495.7,110.7,484.3,110.7z"/>
</svg>
